<?xml version="1.0" encoding="UTF-8" standalone="no"?>
<!-- Created with Inkscape (http://www.inkscape.org/) -->

<svg
   width="172.11455mm"
   height="126.97155mm"
   viewBox="0 0 172.11455 126.97155"
   version="1.1"
   id="svg5"
   xml:space="preserve"
   inkscape:version="1.2.2 (b0a8486541, 2022-12-01)"
   sodipodi:docname="illumarineicon.svg"
   inkscape:export-filename="illumarine.png"
   inkscape:export-xdpi="102.43805"
   inkscape:export-ydpi="102.43805"
   xmlns:inkscape="http://www.inkscape.org/namespaces/inkscape"
   xmlns:sodipodi="http://sodipodi.sourceforge.net/DTD/sodipodi-0.dtd"
   xmlns="http://www.w3.org/2000/svg"
   xmlns:svg="http://www.w3.org/2000/svg"><sodipodi:namedview
     id="namedview7"
     pagecolor="#ffffff"
     bordercolor="#000000"
     borderopacity="0.25"
     inkscape:showpageshadow="2"
     inkscape:pageopacity="0.0"
     inkscape:pagecheckerboard="0"
     inkscape:deskcolor="#d1d1d1"
     inkscape:document-units="mm"
     showgrid="false"
     showguides="true"
     inkscape:zoom="0.93806818"
     inkscape:cx="210.00606"
     inkscape:cy="292.62265"
     inkscape:window-width="2494"
     inkscape:window-height="1371"
     inkscape:window-x="0"
     inkscape:window-y="0"
     inkscape:window-maximized="1"
     inkscape:current-layer="layer1" /><defs
     id="defs2" /><g
     inkscape:label="Layer 1"
     inkscape:groupmode="layer"
     id="layer1"
     transform="translate(-21.44393,-46.756618)"><circle
       style="opacity:1;fill:#000080;stroke-width:4.50001;stroke-linecap:round;stroke-linejoin:round;paint-order:stroke fill markers"
       id="path376"
       cx="107.67197"
       cy="110.24239"
       r="63.485775" /><path
       style="opacity:1;fill:#ffffff;stroke-width:4.50001;stroke-linecap:round;stroke-linejoin:round;paint-order:stroke fill markers"
       d="m 102.03333,159.05917 v -11.878 c 0,0 0.25314,-4.76051 6.08437,-4.78423 5.83123,-0.0237 5.73598,4.43366 5.73598,4.43366 l -0.0425,9.77452 h 12.6633 l -6.30068,-47.16064 -4.5065,-1.8343 3.82754,-3.53111 -24.333668,-0.26683 -6.291721,58.20309 z"
       id="path986"
       sodipodi:nodetypes="cczccccccccc" /><path
       id="path988"
       style="opacity:1;fill:#ffffff;stroke-width:4.50001;stroke-linecap:round;stroke-linejoin:round;paint-order:stroke fill markers"
       d="m 107.22601,94.963713 -15.69723,0.271818 v 3.324344 c 0,0 0.09786,1.467795 0.584977,1.964225 0.487114,0.49643 2.023649,0.64389 2.023649,0.64389 l 13.088604,-0.091 13.08913,0.091 c 0,0 1.53654,-0.14746 2.02365,-0.64389 0.48709,-0.49643 0.58497,-1.964225 0.58497,-1.964225 v -3.324344 z" /><rect
       style="opacity:1;fill:#ffffff;stroke-width:4.50001;stroke-linecap:round;stroke-linejoin:round;paint-order:stroke fill markers"
       id="rect1042"
       width="5.1483984"
       height="10.951381"
       x="96.350815"
       y="81.36808"
       ry="1.2219919" /><rect
       style="opacity:1;fill:#ffffff;stroke-width:4.50001;stroke-linecap:round;stroke-linejoin:round;paint-order:stroke fill markers"
       id="rect1044"
       width="6.3263221"
       height="10.951381"
       x="104.33804"
       y="81.36808"
       ry="1.2219919" /><rect
       style="opacity:1;fill:#ffffff;stroke-width:4.50001;stroke-linecap:round;stroke-linejoin:round;paint-order:stroke fill markers"
       id="rect1046"
       width="5.1483984"
       height="10.951381"
       x="113.5032"
       y="81.36808"
       ry="1.2219919" /><path
       id="path1823"
       style="opacity:1;fill:#ffffff;stroke-width:4.50001;stroke-linecap:round;stroke-linejoin:round;paint-order:stroke fill markers"
       d="M 107.50145,63.608004 C 105,63.607985 91.52878,76.845439 91.52878,76.845439 c -1.643235,1.536706 -1.176587,2.124169 1.103809,1.896008 l 14.868861,-0.04599 14.86834,0.04599 c 2.2804,0.228161 2.74705,-0.359302 1.10381,-1.896008 0,0 -13.4707,-13.237416 -15.97215,-13.237435 z"
       sodipodi:nodetypes="zcccccz" /><path
       style="opacity:1;fill:#ffdd55;stroke-width:4.50001;stroke-linecap:round;stroke-linejoin:round;paint-order:stroke fill markers"
       d="M 93.124437,88.260739 24.91875,111.13795 c 0,0 -3.47482,-4.30617 -3.47482,-22.168651 0,-17.862479 4.074894,-23.449436 4.074894,-23.449436 z"
       id="path1825"
       sodipodi:nodetypes="cczcc" /><path
       style="opacity:1;fill:#ffdd55;stroke-width:4.50001;stroke-linecap:round;stroke-linejoin:round;paint-order:stroke fill markers"
       d="m 121.87797,88.260739 68.20569,22.877211 c 0,0 3.47482,-4.30617 3.47482,-22.168651 0,-17.862479 -4.0749,-23.449436 -4.0749,-23.449436 z"
       id="path1884"
       sodipodi:nodetypes="cczcc" /></g></svg>
